<svg width="29" height="31" viewBox="0 0 29 31" fill="none" xmlns="http://www.w3.org/2000/svg">
    <path d="M0 2.49614C0 2.18585 0.239023 1.92793 0.548416 1.90438L23.4075 0.163846C24.5685 0.0754416 25.5593 0.993669 25.5593 2.15807V2.33658C25.5593 3.48382 24.5963 4.39593 23.4507 4.33363L0.561244 3.08874C0.246465 3.07162 0 2.81138 0 2.49614Z" fill="#32CDE2"/>
    <path d="M3.93221 7.74567C3.93221 6.57134 4.93922 5.64971 6.10896 5.7535L28.4584 7.73646C28.765 7.76366 29 8.02048 29 8.32825C29 8.64613 28.7498 8.90769 28.4322 8.92178L6.02084 9.91601C4.8826 9.96651 3.93221 9.05734 3.93221 7.91798V7.74567Z" fill="#32CDE2"/>
    <path d="M13.6804 30.3325C12.6571 29.9899 12.073 28.8409 12.4017 27.8172L17.8589 10.8196C17.9082 10.6659 18.0452 10.5648 18.2039 10.5648C18.4484 10.5648 18.6436 10.7983 18.6071 11.0469L15.9819 28.9048C15.8176 30.0224 14.7437 30.6886 13.6804 30.3325Z" fill="#32CDE2"/>
    <path d="M7.86162 29.7017C7.6134 29.7017 7.41817 29.4593 7.4649 29.2091L10.6791 12.0008C10.8801 10.9245 11.9304 10.3031 12.9637 10.6491C14.016 11.0015 14.5962 12.2033 14.2131 13.237L8.19776 29.4654C8.14453 29.609 8.01271 29.7017 7.86162 29.7017Z" fill="#32CDE2"/>
</svg>
